<svg width="97" height="28" viewBox="0 0 97 28" fill="none" xmlns="http://www.w3.org/2000/svg">
<path fill-rule="evenodd" clip-rule="evenodd" d="M67.2747 25.9999V20.6559L69.1947 18.5439L73.6427 25.9999H79.0827L72.7787 15.5679L79.1147 8.52788H73.1947L67.2747 14.8319V1.77588H62.4747V25.9999H67.2747ZM43.5556 25.1999C42.1476 25.9892 40.5796 26.3839 38.8516 26.3839C37.1236 26.3839 35.5502 25.9892 34.1316 25.1999C32.7129 24.4105 31.5822 23.3279 30.7396 21.9519C29.8969 20.5759 29.4756 19.0132 29.4756 17.2639C29.4756 15.4932 29.8969 13.9252 30.7396 12.5599C31.5822 11.1945 32.7129 10.1172 34.1316 9.32788C35.5502 8.53855 37.1236 8.14388 38.8516 8.14388C40.5796 8.14388 42.1476 8.53855 43.5556 9.32788C44.9636 10.1172 46.0889 11.1945 46.9316 12.5599C47.7742 13.9252 48.1956 15.4932 48.1956 17.2639C48.1956 19.0132 47.7742 20.5759 46.9316 21.9519C46.0889 23.3279 44.9636 24.4105 43.5556 25.1999ZM14.592 14.7999L10.528 25.9999H6.368L0.352001 8.52788H5.312L8.704 18.6719L12.512 8.52788H16.672L20.448 18.6719L23.84 8.52788H28.832L22.784 25.9999H18.624L14.592 14.7999ZM38.8516 22.0639C37.5502 22.0639 36.4889 21.6159 35.6676 20.7199C34.8462 19.8239 34.4356 18.6719 34.4356 17.2639C34.4356 15.8772 34.8462 14.7305 35.6676 13.8239C36.4889 12.9172 37.5502 12.4639 38.8516 12.4639C40.1529 12.4639 41.2089 12.9172 42.0196 13.8239C42.8302 14.7305 43.2356 15.8772 43.2356 17.2639C43.2356 18.6719 42.8302 19.8239 42.0196 20.7199C41.2089 21.6159 40.1529 22.0639 38.8516 22.0639ZM55.3671 16.5919V25.9999H50.5671V8.52788H55.0471V11.1519C55.4951 10.0639 56.1298 9.32255 56.9511 8.92788C57.7724 8.53321 58.7164 8.33588 59.7831 8.33588H60.8071V12.4959H59.3031C58.1298 12.4959 57.1804 12.8532 56.4551 13.5679C55.7298 14.2825 55.3671 15.2905 55.3671 16.5919ZM83.5982 2.15988V5.67988H81.6782V2.15988H83.5982ZM83.5982 25.9999V9.00788H81.6782V25.9999H83.5982ZM95.3138 26.1599C95.0151 26.1812 94.7804 26.1919 94.6098 26.1919C93.1804 26.1919 92.0871 25.7919 91.3298 24.9919C90.5724 24.1919 90.1938 23.0239 90.1938 21.4879V10.8319H86.9938V9.00788H88.2098C88.8284 9.00788 89.3138 8.81588 89.6658 8.43188C90.0178 8.04788 90.1938 7.52521 90.1938 6.86388V5.03988H92.1138V9.00788H95.8258V10.8319H92.1138V21.4879C92.1138 21.9572 92.1831 22.4159 92.3218 22.8639C92.4604 23.3119 92.7324 23.6745 93.1378 23.9519C93.5431 24.2292 94.1298 24.3679 94.8978 24.3679C95.0684 24.3679 95.2764 24.3572 95.5218 24.3359C95.7671 24.3145 95.9644 24.2932 96.1138 24.2719V26.0319C95.8791 26.0959 95.6124 26.1385 95.3138 26.1599Z" fill="#24053E"/>
</svg>
