<svg width="97" height="28" viewBox="0 0 97 28" fill="none" xmlns="http://www.w3.org/2000/svg">
<path fill-rule="evenodd" clip-rule="evenodd" d="M67.2747 26V20.656L69.1947 18.544L73.6427 26H79.0827L72.7787 15.568L79.1147 8.528H73.1947L67.2747 14.832V1.776H62.4747V26H67.2747ZM43.5555 25.2C42.1475 25.9893 40.5795 26.384 38.8515 26.384C37.1235 26.384 35.5502 25.9893 34.1315 25.2C32.7129 24.4107 31.5822 23.328 30.7395 21.952C29.8969 20.576 29.4755 19.0133 29.4755 17.264C29.4755 15.4933 29.8969 13.9253 30.7395 12.56C31.5822 11.1947 32.7129 10.1173 34.1315 9.328C35.5502 8.53867 37.1235 8.144 38.8515 8.144C40.5795 8.144 42.1475 8.53867 43.5555 9.328C44.9635 10.1173 46.0889 11.1947 46.9315 12.56C47.7742 13.9253 48.1955 15.4933 48.1955 17.264C48.1955 19.0133 47.7742 20.576 46.9315 21.952C46.0889 23.328 44.9635 24.4107 43.5555 25.2ZM14.592 14.8L10.528 26H6.36799L0.35199 8.528H5.31199L8.70399 18.672L12.512 8.528H16.672L20.448 18.672L23.84 8.528H28.832L22.784 26H18.624L14.592 14.8ZM38.8515 22.064C37.5502 22.064 36.4889 21.616 35.6675 20.72C34.8462 19.824 34.4355 18.672 34.4355 17.264C34.4355 15.8773 34.8462 14.7307 35.6675 13.824C36.4889 12.9173 37.5502 12.464 38.8515 12.464C40.1529 12.464 41.2089 12.9173 42.0195 13.824C42.8302 14.7307 43.2355 15.8773 43.2355 17.264C43.2355 18.672 42.8302 19.824 42.0195 20.72C41.2089 21.616 40.1529 22.064 38.8515 22.064ZM55.3671 16.592V26H50.5671V8.528H55.0471V11.152C55.4951 10.064 56.1298 9.32267 56.9511 8.928C57.7724 8.53333 58.7164 8.336 59.7831 8.336H60.8071V12.496H59.3031C58.1298 12.496 57.1804 12.8533 56.4551 13.568C55.7298 14.2827 55.3671 15.2907 55.3671 16.592ZM83.5982 2.16V5.68H81.6782V2.16H83.5982ZM83.5982 26V9.008H81.6782V26H83.5982ZM95.3138 26.16C95.0151 26.1813 94.7804 26.192 94.6098 26.192C93.1804 26.192 92.0871 25.792 91.3298 24.992C90.5724 24.192 90.1938 23.024 90.1938 21.488V10.832H86.9938V9.008H88.2098C88.8284 9.008 89.3138 8.816 89.6658 8.432C90.0178 8.048 90.1938 7.52533 90.1938 6.864V5.04H92.1138V9.008H95.8258V10.832H92.1138V21.488C92.1138 21.9573 92.1831 22.416 92.3218 22.864C92.4604 23.312 92.7324 23.6747 93.1378 23.952C93.5431 24.2293 94.1298 24.368 94.8978 24.368C95.0684 24.368 95.2764 24.3573 95.5218 24.336C95.7671 24.3147 95.9644 24.2933 96.1138 24.272V26.032C95.8791 26.096 95.6124 26.1387 95.3138 26.16Z" fill="white"/>
</svg>
