<svg width="20" height="20" viewBox="0 0 20 20"
    xmlns="http://www.w3.org/2000/svg">
    <path d="M20 4.17221C19.2642 4.49888 18.4733 4.71888 17.6433 4.81805C18.4908 4.31055 19.1417 3.50638 19.4475 2.54805C18.655 3.01805 17.7767 3.35971 16.8417 3.54388C16.0942 2.74638 15.0267 2.24805 13.8467 2.24805C11.1975 2.24805 9.25083 4.71971 9.84917 7.28555C6.44 7.11471 3.41667 5.48138 1.3925 2.99888C0.3175 4.84305 0.835 7.25555 2.66167 8.47721C1.99 8.45555 1.35667 8.27138 0.804167 7.96388C0.759167 9.86471 2.12167 11.643 4.095 12.0389C3.5175 12.1955 2.885 12.2322 2.24167 12.1089C2.76333 13.7389 4.27833 14.9247 6.075 14.958C4.35 16.3105 2.17667 16.9147 0 16.658C1.81583 17.8222 3.97333 18.5014 6.29 18.5014C13.9083 18.5014 18.2125 12.0672 17.9525 6.29638C18.7542 5.71721 19.45 4.99471 20 4.17221Z" fill="currentColor" />
</svg>